<svg width="20" height="20" viewBox="0 0 20 20" fill="none" xmlns="http://www.w3.org/2000/svg">
<path fill-rule="evenodd" clip-rule="evenodd" d="M9.99999 1.66663C5.39999 1.66663 1.66666 5.39996 1.66666 9.99996C1.66666 14.6 5.39999 18.3333 9.99999 18.3333C14.6 18.3333 18.3333 14.6 18.3333 9.99996C18.3333 5.39996 14.6 1.66663 9.99999 1.66663ZM9.16666 15.8333V14.1666H10.8333V15.8333H9.16666ZM11.8083 10.1416L12.5583 9.37496C13.4083 8.52496 13.7 7.06663 12.7167 5.7083C11.9667 4.66663 10.7583 4.0083 9.49166 4.2083C8.19999 4.4083 7.15832 5.34163 6.79999 6.56663C6.66666 7.0333 6.99999 7.49996 7.48332 7.49996H7.73332C8.05832 7.49996 8.31666 7.26663 8.41666 6.9583C8.69166 6.16663 9.54999 5.64163 10.475 5.89996C11.0583 6.06663 11.525 6.57496 11.6333 7.17496C11.7417 7.7583 11.5583 8.3083 11.175 8.67496L10.1417 9.72496C9.79166 10.075 9.51666 10.5083 9.34999 10.9916C9.23332 11.3333 9.16666 11.7 9.16666 12.0833V12.5H10.8333C10.8333 12.1166 10.875 11.8166 10.9417 11.55C11.0917 10.95 11.3917 10.5666 11.8083 10.1416Z" fill="black" fill-opacity="0.54"/>
</svg>
